# xmcd CD database file
#
# Track frame offsets:
#	150
#	15812
#	36854
#	58393
#	77170
#	97784
#	119830
#	143179
#	161791
#	186203
#	209989
#	226993
#	249655
#	274856
#
# Disc length: 3936 seconds
#
# Revision: 0
# Processed by: cddbd v1.5.2PL0 Copyright (c) Steve Scherf et al.
# Submitted via: CDex 1.51
#
DISCID=cc0f5e0e
DTITLE=Quinto Mayor - Sólo Hits
DYEAR=2007
DGENRE=Salsa
TTITLE0=Yenguele María - Charlie Palmieri
TTITLE1=Amor Para Mi - Ramón Orlando Valoy
TTITLE2=La Pachanga - Joe Quijano
TTITLE3=Trucutú - Chamaco Ramírez
TTITLE4=La Yerba Brava - Josefina Hernandez
TTITLE5=Que Pena - Carlos Lebrón
TTITLE6=Papaupa =Arcenio Rodríguez
TTITLE7=Que Viva La Salsa - Diego Moran
TTITLE8=La Prieta - D.R.A
TTITLE9=Mendigo De Amor - R. Orlando - C. Valoy
TTITLE10=Palo De Mango - Eddie Palmieri y Cheo Feliciano
TTITLE11=Catalina La O - D.R.A
TTITLE12=El Nazareno - H. Williams
TTITLE13=Son Para Un Sonero - Adalberto Hernandez
EXTD=YEAR: 2007
EXTT0=
EXTT1=
EXTT2=
EXTT3=
EXTT4=
EXTT5=
EXTT6=
EXTT7=
EXTT8=
EXTT9=
EXTT10=
EXTT11=
EXTT12=
EXTT13=
PLAYORDER=
